#tb 0: 1/44100
#media_type 0: audio
#codec_id 0: pcm_s16le
#sample_rate 0: 44100
#channel_layout_name 0: stereo
0,          0,          0,     4096,    16384, 0xffa5dfc9
0,       4096,       4096,     4096,    16384, 0x0e95e4c8
0,       8192,       8192,     4096,    16384, 0xeb6ee55d
0,      12288,      12288,     4096,    16384, 0xc889de93
0,      16384,      16384,     4096,    16384, 0x86e4dff1
0,      20480,      20480,     4096,    16384, 0x5fbbdeee
0,      24576,      24576,     4096,    16384, 0x4caedc56
0,      28672,      28672,     4096,    16384, 0x17d2e527
0,      32768,      32768,     4096,    16384, 0x988ee3c1
0,      36864,      36864,     4096,    16384, 0x9cb3e4c3
0,      40960,      40960,     4096,    16384, 0x21d857e1
0,      45056,      45056,     4096,    16384, 0x5ea0ec58
0,      49152,      49152,     4096,    16384, 0x746af641
0,      53248,      53248,     4096,    16384, 0xc696e97a
0,      57344,      57344,     4096,    16384, 0xd72f21ab
0,      61440,      61440,     4096,    16384, 0xfa7ec400
0,      65536,      65536,     4096,    16384, 0xe60fc430
0,      69632,      69632,     4096,    16384, 0x1528f201
0,      73728,      73728,     4096,    16384, 0x550e0063
0,      77824,      77824,     4096,    16384, 0x7cacd2e9
0,      81920,      81920,     4096,    16384, 0xe7f31ea8
0,      86016,      86016,     4096,    16384, 0x5889e5e0
0,      90112,      90112,     4096,    16384, 0x6ffc0a4f
0,      94208,      94208,     4096,    16384, 0xbe68a872
0,      98304,      98304,     4096,    16384, 0xd02e5c03
0,     102400,     102400,     4096,    16384, 0x432a70e9
0,     106496,     106496,     4096,    16384, 0x57b86d4c
0,     110592,     110592,     4096,    16384, 0x05a3acb3
0,     114688,     114688,     4096,    16384, 0x4686a941
0,     118784,     118784,     4096,    16384, 0xf0ce0a37
0,     122880,     122880,     4096,    16384, 0x43a2c1f7
0,     126976,     126976,     4096,    16384, 0xf960e745
0,     131072,     131072,     4096,    16384, 0x38f7fde6
0,     135168,     135168,     4096,    16384, 0x05d0da2b
0,     139264,     139264,     4096,    16384, 0x9f62ee9d
0,     143360,     143360,     4096,    16384, 0xa9cfe024
0,     147456,     147456,     4096,    16384, 0x180cd6b7
0,     151552,     151552,     4096,    16384, 0x769513eb
0,     155648,     155648,     4096,    16384, 0x3f91c412
0,     159744,     159744,     4096,    16384, 0x6a90d3f3
0,     163840,     163840,     4096,    16384, 0x3351cdc9
0,     167936,     167936,     4096,    16384, 0xbad0bb42
0,     172032,     172032,     4096,    16384, 0xc718d9a0
0,     176128,     176128,     4096,    16384, 0xc31be40e
0,     180224,     180224,     4096,    16384, 0xec1be83c
0,     184320,     184320,     4096,    16384, 0x5cd3a2d6
0,     188416,     188416,     4096,    16384, 0x8a08e715
0,     192512,     192512,     4096,    16384, 0xb3d3c5ca
0,     196608,     196608,     4096,    16384, 0x32e3daee
0,     200704,     200704,     4096,    16384, 0xd1550f5a
0,     204800,     204800,     4096,    16384, 0xecd2dca1
0,     208896,     208896,     4096,    16384, 0x3fdede06
0,     212992,     212992,     4096,    16384, 0x86cde8bf
0,     217088,     217088,     4096,    16384, 0x5cd3a2d6
0,     221184,     221184,     4096,    16384, 0x8a08e715
0,     225280,     225280,     4096,    16384, 0xb3d3c5ca
0,     229376,     229376,     4096,    16384, 0x32e3daee
0,     233472,     233472,     4096,    16384, 0xd1550f5a
0,     237568,     237568,     4096,    16384, 0xecd2dca1
0,     241664,     241664,     4096,    16384, 0x3fdede06
0,     245760,     245760,     4096,    16384, 0x86cde8bf
0,     249856,     249856,     4096,    16384, 0x5cd3a2d6
0,     253952,     253952,     4096,    16384, 0x8a08e715
0,     258048,     258048,     4096,    16384, 0xb3d3c5ca
0,     262144,     262144,     2456,     9824, 0xf0801c69
